<?xml version="1.0" encoding="UTF-8"?>
<svg version="1.1" xmlns="http://www.w3.org/2000/svg" width="200" height="200">
<path d="M0 0 C0.73541016 0.00202423 1.47082031 0.00404846 2.22851562 0.00613403 C2.97939453 0.00517731 3.73027344 0.00422058 4.50390625 0.00323486 C6.09440189 0.00255315 7.6849003 0.00440682 9.27539062 0.00857544 C11.71816217 0.01392386 14.16074984 0.00863019 16.60351562 0.00222778 C18.1451827 0.00288857 19.68684966 0.00416973 21.22851562 0.00613403 C21.96392578 0.0041098 22.69933594 0.00208557 23.45703125 0 C28.61356402 0.02399493 28.61356402 0.02399493 29.72851562 1.13894653 C29.82269335 3.22513676 29.8459444 5.3145513 29.84204102 7.40286255 C29.84216155 8.06709952 29.84228209 8.7313365 29.84240627 9.41570187 C29.84165739 11.57478575 29.8340303 13.73378426 29.82617188 15.89285278 C29.82516479 17.20894531 29.82415771 18.52503784 29.82312012 19.88101196 C29.81786811 24.82116562 29.80390701 29.76130691 29.79101562 34.70144653 C29.76007813 51.25300903 29.76007813 51.25300903 29.72851562 68.13894653 C53.48851563 68.13894653 77.24851563 68.13894653 101.72851562 68.13894653 C101.68890213 46.13417363 101.68890213 46.13417363 101.63842773 24.12942505 C101.63550889 21.38390135 101.63296026 18.63837723 101.63085938 15.89285278 C101.628246 15.17483994 101.62563263 14.45682709 101.62294006 13.71705627 C101.61565991 11.61230134 101.6146083 9.50762811 101.61499023 7.40286255 C101.61276962 6.21483536 101.61054901 5.02680817 101.60826111 3.80278015 C101.72851562 1.13894653 101.72851562 1.13894653 102.72851562 0.13894653 C105.23775716 0.03807441 107.71887946 -0.00077379 110.22851562 0.00613403 C110.97939453 0.00517731 111.73027344 0.00422058 112.50390625 0.00323486 C114.09440189 0.00255315 115.6849003 0.00440682 117.27539062 0.00857544 C119.71816217 0.01392386 122.16074984 0.00863019 124.60351562 0.00222778 C126.1451827 0.00288857 127.68684966 0.00416973 129.22851562 0.00613403 C129.96392578 0.0041098 130.69933594 0.00208557 131.45703125 0 C136.61356402 0.02399493 136.61356402 0.02399493 137.72851562 1.13894653 C137.8277608 3.37689305 137.8548399 5.61803889 137.85549927 7.85818481 C137.85705926 8.56887178 137.85861925 9.27955875 137.86022651 10.01178169 C137.86423892 12.41096144 137.86104595 14.81007873 137.85791016 17.20925903 C137.85926409 18.92204831 137.86104398 20.6348373 137.86322021 22.34762573 C137.86779548 27.01278135 137.86600461 31.67791496 137.86284113 36.34307098 C137.86031801 41.21399497 137.86265493 46.08491701 137.86422729 50.95584106 C137.86604913 59.13732239 137.86364231 67.3187947 137.85888672 75.50027466 C137.85344407 84.97343989 137.85520672 94.4465836 137.86071312 103.91974831 C137.86524386 112.03776548 137.865895 120.15577615 137.86327446 128.27379417 C137.86171146 133.12909676 137.86151853 137.98438922 137.86481094 142.83969116 C137.86768908 147.40323143 137.86571503 151.96674382 137.85991669 156.53028107 C137.85858878 158.21014611 137.85898372 159.89001349 137.86117935 161.56987762 C137.86388966 163.85318672 137.86051122 166.13640503 137.85549927 168.41970825 C137.85493373 170.34108109 137.85493373 170.34108109 137.85435677 172.30126953 C137.72851562 175.13894653 137.72851562 175.13894653 136.72851562 176.13894653 C134.21927409 176.23981865 131.73815179 176.27866686 129.22851562 176.27175903 C128.47763672 176.27271576 127.72675781 176.27367249 126.953125 176.2746582 C125.36262936 176.27533991 123.77213095 176.27348625 122.18164062 176.26931763 C119.73886908 176.2639692 117.29628141 176.26926287 114.85351562 176.27566528 C113.31184855 176.2750045 111.77018159 176.27372333 110.22851562 176.27175903 C109.49310547 176.27378326 108.75769531 176.2758075 108 176.27789307 C102.84346723 176.25389814 102.84346723 176.25389814 101.72851562 175.13894653 C101.63358841 172.79640872 101.60291771 170.48348549 101.61499023 168.14065552 C101.61484421 167.4089917 101.61469818 166.67732788 101.61454773 165.92349243 C101.61524696 163.4939787 101.62303978 161.0645407 101.63085938 158.63504028 C101.63272352 156.95495139 101.63414744 155.27486196 101.63514709 153.59477234 C101.63897255 149.1642101 101.64880307 144.73368044 101.65985107 140.3031311 C101.67185908 134.99178999 101.6764673 129.68043801 101.68230438 124.36908722 C101.69201482 116.29235097 101.71117116 108.21568626 101.72851562 100.13894653 C77.96851562 100.13894653 54.20851562 100.13894653 29.72851562 100.13894653 C29.74011719 105.54140747 29.75171875 110.94386841 29.76367188 116.51004028 C29.76877869 119.92345294 29.77359247 123.33686091 29.77734375 126.75027466 C29.78333196 132.17354302 29.79043166 137.59679456 29.80395508 143.02005005 C29.81478477 147.39017484 29.82079263 151.76028161 29.82339287 156.13041878 C29.82524697 157.80145616 29.8288673 159.47249251 29.83424568 161.14352226 C29.84145721 163.47592205 29.84250652 165.80824646 29.84204102 168.14065552 C29.84563629 168.83836563 29.84923157 169.53607574 29.85293579 170.25492859 C29.84256779 175.02489437 29.84256779 175.02489437 28.72851562 176.13894653 C26.21927409 176.23981865 23.73815179 176.27866686 21.22851562 176.27175903 C20.47763672 176.27271576 19.72675781 176.27367249 18.953125 176.2746582 C17.36262936 176.27533991 15.77213095 176.27348625 14.18164062 176.26931763 C11.73886908 176.2639692 9.29628141 176.26926287 6.85351562 176.27566528 C5.31184855 176.2750045 3.77018159 176.27372333 2.22851562 176.27175903 C1.49310547 176.27378326 0.75769531 176.2758075 0 176.27789307 C-5.15653277 176.25389814 -5.15653277 176.25389814 -6.27148438 175.13894653 C-6.37072955 172.90100002 -6.39780865 170.65985418 -6.39846802 168.41970825 C-6.40002801 167.70902128 -6.401588 166.99833431 -6.40319526 166.26611137 C-6.40720767 163.86693163 -6.4040147 161.46781433 -6.40087891 159.06863403 C-6.40223284 157.35584475 -6.40401273 155.64305577 -6.40618896 153.93026733 C-6.41076423 149.26511172 -6.40897336 144.59997811 -6.40580988 139.93482208 C-6.40328676 135.0638981 -6.40562368 130.19297606 -6.40719604 125.322052 C-6.40901788 117.14057068 -6.40661106 108.95909837 -6.40185547 100.77761841 C-6.39641282 91.30445318 -6.39817547 81.83130947 -6.40368187 72.35814476 C-6.40821261 64.24012759 -6.40886375 56.12211692 -6.40624321 48.00409889 C-6.40468021 43.14879631 -6.40448728 38.29350385 -6.40777969 33.4382019 C-6.41065783 28.87466163 -6.40868378 24.31114924 -6.40288544 19.747612 C-6.40155753 18.06774695 -6.40195247 16.38787958 -6.4041481 14.70801544 C-6.40685841 12.42470635 -6.40347997 10.14148804 -6.39846802 7.85818481 C-6.39809099 6.57726959 -6.39771397 5.29635437 -6.39732552 3.97662354 C-6.18302829 -0.85570965 -4.35262163 0.02025408 0 0 Z " fill="#191919" transform="translate(34.271484375,11.861053466796875)"/>
</svg>
